<svg version="1.1" xmlns="http://www.w3.org/2000/svg" xmlns:xlink="http://www.w3.org/1999/xlink" width="102" height="46"><defs/><g><path fill="rgb(119,25,33)" stroke="none" paint-order="stroke fill markers" fill-rule="evenodd" d=" M 1.6197490692138672 2.3246617317199707 C 1.6197490692138672 2.3246617317199707 2.3803043365478516 1.6753883361816406 2.3803043365478516 1.6753883361816406 C 2.3803043365478516 1.6753883361816406 37.38034248352051 42.67538499832153 37.38034248352051 42.67538499832153 C 37.38034248352051 42.67538499832153 36.6197395324707 43.32465839385986 36.6197395324707 43.32465839385986 C 36.6197395324707 43.32465839385986 1.6197490692138672 2.3246617317199707 1.6197490692138672 2.3246617317199707 C 1.6197490692138672 2.3246617317199707 1.6197490692138672 2.3246617317199707 1.6197490692138672 2.3246617317199707 M 37.35359191894531 44.35358953475952 C 37.35359191894531 44.35358953475952 36.6464900970459 43.64648771286011 36.6464900970459 43.64648771286011 C 36.6464900970459 43.64648771286011 56.64647102355957 23.64647102355957 56.64647102355957 23.64647102355957 C 56.64647102355957 23.64647102355957 57.353572845458984 24.353572845458984 57.353572845458984 24.353572845458984 C 57.353572845458984 24.353572845458984 37.35359191894531 44.35358953475952 37.35359191894531 44.35358953475952 C 37.35359191894531 44.35358953475952 37.35359191894531 44.35358953475952 37.35359191894531 44.35358953475952 M 57.16474533081055 24.472126483917236 C 57.16474533081055 24.472126483917236 56.83534622192383 23.52791738510132 56.83534622192383 23.52791738510132 C 56.83534622192383 23.52791738510132 99.83537673950195 8.527931690216064 99.83537673950195 8.527931690216064 C 99.83537673950195 8.527931690216064 100.16472816467285 9.472140789031982 100.16472816467285 9.472140789031982 C 100.16472816467285 9.472140789031982 57.16474533081055 24.472126483917236 57.16474533081055 24.472126483917236 C 57.16474533081055 24.472126483917236 57.16474533081055 24.472126483917236 57.16474533081055 24.472126483917236"/></g></svg>